<?xml version="1.0" encoding="utf-8"?>
<!-- Generator: Adobe Illustrator 25.0.0, SVG Export Plug-In . SVG Version: 6.00 Build 0)  -->
<svg version="1.1" id="Layer_1" xmlns="http://www.w3.org/2000/svg" xmlns:xlink="http://www.w3.org/1999/xlink" x="0px" y="0px" width="128px" height="26px"
	 viewBox="0 0 138 26" style="enable-background:new 0 0 138 26;" xml:space="preserve">
<style type="text/css">
	.st0{fill:#E2251D;}
</style>
<g>
	<path class="st0" d="M66.2,0.4C60.1,0.4,55,5.2,55,11.3c-0.1,6.1,4.8,11.1,10.9,11.2C72,22.5,77,17.7,77.1,11.6
		C77.1,5.5,72.3,0.5,66.2,0.4 M65.9,18.3c-3.8-0.1-6.9-3.2-6.8-7c0-3.8,3.2-6.8,7-6.8c3.8,0.1,6.9,3.2,6.8,7
		C72.9,15.3,69.7,18.4,65.9,18.3"/>
	<path class="st0" d="M76.3,25.5c1.5,0,2.7-1.2,2.7-2.6c0-1.5-1.2-2.7-2.7-2.7c-1.5,0-2.7,1.2-2.7,2.6
		C73.6,24.2,74.8,25.5,76.3,25.5"/>
	<path class="st0" d="M85.8,11.5c0.5-0.5,0.7-1.2,0.5-1.9c-0.3-0.8-1-1.3-1.8-1.3h-2.8v7h3.1c1.3,0,2-1.1,2-2.1
		C86.7,12.5,86.4,11.9,85.8,11.5 M85.2,10.3c0,0.4-0.2,0.9-0.7,0.9h-1.7V9.5h1.7c0.2,0,0.4,0.1,0.5,0.2
		C85.1,9.9,85.2,10.1,85.2,10.3 M82.8,12.3h1.9c0.6,0,0.9,0.5,0.9,1c0,0.5-0.3,1-0.9,1h-1.9V12.3z"/>
	<path class="st0" d="M89.7,8.4l-2.7,7h1.2l0.6-1.7h2.6l0.6,1.7h1.2l-2.7-7L89.7,8.4L89.7,8.4z M89.2,12.6l0.9-2.3l0.9,2.3H89.2z"/>
	<path class="st0" d="M98.6,10.7c0-1.2-0.8-2.3-2.2-2.3h-2.5v7H95V9.5h1.4c0.7,0,1.1,0.6,1.1,1.2c0,0.5-0.3,1.1-1.1,1.1h-1.2v0.1
		l0,0.5l2.4,3h1.5L97,12.8C98,12.6,98.6,11.7,98.6,10.7"/>
	<path class="st0" d="M104.6,12.7c-0.3,1-1.1,1.5-2.1,1.5c-0.6,0-1.2-0.3-1.6-0.7c-0.4-0.4-0.6-1-0.6-1.7c0-0.6,0.2-1.2,0.6-1.7
		c0.4-0.5,1-0.7,1.6-0.7c1,0,1.7,0.5,2,1.5l0,0.1h1.1l0-0.1c-0.4-1.6-1.6-2.6-3.2-2.6c-0.9,0-1.8,0.4-2.4,1.1c-0.6,0.7-1,1.6-1,2.5
		c0,0.9,0.4,1.8,1,2.5c0.6,0.7,1.5,1,2.4,1c1.6,0,2.8-1,3.2-2.6l0-0.1L104.6,12.7L104.6,12.7z"/>
	<polygon class="st0" points="107.8,12.4 110.8,12.4 110.8,11.2 107.8,11.2 107.8,9.5 110.8,9.5 110.8,8.4 106.6,8.4 106.6,15.4 
		110.8,15.4 110.8,14.2 107.8,14.2 	"/>
	<polygon class="st0" points="113.1,8.4 111.9,8.4 111.9,15.4 116.2,15.4 116.2,14.2 113.1,14.2 	"/>
	<path class="st0" d="M119.7,8.3c-1.9,0-3.5,1.6-3.5,3.6c0,2,1.6,3.6,3.5,3.6c1.9,0,3.5-1.6,3.5-3.6C123.2,9.9,121.6,8.3,119.7,8.3
		 M119.7,14.3c-1.3,0-2.4-1.1-2.4-2.4c0-1.3,1.1-2.4,2.4-2.4c1.3,0,2.4,1.1,2.4,2.4C122,13.2,121,14.3,119.7,14.3"/>
	<polygon class="st0" points="128.1,13 125,8.4 124.2,8.4 124.2,15.4 125.3,15.4 125.3,10.9 128.3,15.4 129.2,15.4 129.2,8.4 
		128.1,8.4 	"/>
	<path class="st0" d="M133.7,8.4h-0.8l-2.7,7h1.2l0.6-1.7h2.6l0.6,1.7h1.2L133.7,8.4z M132.4,12.6l0.9-2.3l0.9,2.3H132.4z"/>
	<path class="st0" d="M6.3,17.7c-2.8-0.1-5.7-1.9-5.7-5.8c0-4,3.1-5.8,5.9-5.8c2.9,0,5.9,1.8,5.9,5.8c0,0.4,0,0.8-0.1,1.2H3.9l0,0.1
		c0.4,1,1.4,1.7,2.6,1.7c0.8,0,1.5-0.3,2-0.8H12c-0.8,2.2-3,3.6-5.5,3.6H6.3z M6.4,8.8c-1.1,0-2,0.7-2.4,1.7l0,0.1h4.9l0-0.1
		C8.5,9.4,7.6,8.8,6.4,8.8"/>
	<path class="st0" d="M17.7,17.8c-2.7,0-4-1.3-4-4.1V4.2l3.2-0.3v2.5h2.4v2.7h-2.4v4.6c0,0.9,0.6,1.4,1.7,1.4c0.3,0,0.6,0,0.9-0.1
		l0.1,2.6C18.9,17.7,18.3,17.8,17.7,17.8L17.7,17.8L17.7,17.8z"/>
	<path class="st0" d="M28.8,17.6v-6.2c0-1.6-0.9-2.3-1.9-2.3c-1.1,0-2.3,0.9-2.3,2.4v6.2h-3.4V6.2h3.2v1.3l0.2-0.2
		c0.8-1.1,2.3-1.3,3.4-1.3c2.8,0,4.1,1.8,4.1,5.3v6.3L28.8,17.6L28.8,17.6z"/>
	<rect x="33.7" y="6.2" class="st0" width="3.2" height="11.3"/>
	<path class="st0" d="M43.9,17.7c-1.5,0-2.8-0.5-3.8-1.5c-1.1-1.1-1.7-2.7-1.7-4.5C38.5,9,40,6,44,6c1.2,0,2.2,0.5,2.9,1.3l0.2,0.2
		V6.2h3.2v11.3h-3.2v-1.3l-0.2,0.2C46.2,17.3,45.2,17.7,43.9,17.7 M44.3,8.9c-1.8,0-2.7,1.5-2.7,2.8c0,0.8,0.3,1.6,0.8,2.2
		c0.5,0.5,1.1,0.7,1.9,0.7c1.5,0,2.7-1.3,2.7-2.9C47.1,10.2,45.8,8.9,44.3,8.9"/>
	<path class="st0" d="M35.4,0.8c-1.1,0-1.9,0.9-1.9,1.9c0,1.1,0.9,1.9,1.9,1.9c1.1,0,1.9-0.9,1.9-1.9C37.3,1.6,36.4,0.8,35.4,0.8"/>
</g>
</svg>
