<?xml version="1.0" encoding="UTF-8"?>
<!DOCTYPE svg PUBLIC "-//W3C//DTD SVG 1.1//EN" "http://www.w3.org/Graphics/SVG/1.1/DTD/svg11.dtd">
<svg xmlns="http://www.w3.org/2000/svg" version="1.1" width="3840px" height="2160px" style="shape-rendering:geometricPrecision; text-rendering:geometricPrecision; image-rendering:optimizeQuality; fill-rule:evenodd; clip-rule:evenodd" xmlns:xlink="http://www.w3.org/1999/xlink">
<g><path style="opacity:0.999" fill="#ed1c24" d="M 1910.5,-0.5 C 1911.17,-0.5 1911.83,-0.5 1912.5,-0.5C 2413.32,363.47 2914.32,727.303 3415.5,1091C 2914.43,1447.19 2413.43,1803.36 1912.5,2159.5C 1911.83,2159.5 1911.17,2159.5 1910.5,2159.5C 1414.53,1800.84 918.529,1442.18 422.5,1083.5C 918.529,722.157 1414.53,360.824 1910.5,-0.5 Z"/></g>
<g><path style="opacity:1" fill="#fefefe" d="M 1143.5,634.5 C 1165.93,633.91 1188.26,635.077 1210.5,638C 1241.63,643.464 1257.13,661.964 1257,693.5C 1253.77,701.059 1250.11,708.392 1246,715.5C 1242.23,726.233 1239.57,737.233 1238,748.5C 1224.56,923.394 1203.56,1097.39 1175,1270.5C 1171.6,1286.41 1170.93,1302.41 1173,1318.5C 1173.78,1320.29 1174.95,1321.79 1176.5,1323C 1199.61,1329.99 1223.27,1333.49 1247.5,1333.5C 1247.23,1330.88 1247.56,1328.38 1248.5,1326C 1242.75,1293.42 1238.58,1260.59 1236,1227.5C 1233.87,1173.91 1238.54,1120.91 1250,1068.5C 1259.18,1025.13 1270.84,982.462 1285,940.5C 1292.86,918.11 1302.86,896.777 1315,876.5C 1321.16,867.969 1328.33,860.469 1336.5,854C 1347.46,848.114 1358.46,848.114 1369.5,854C 1382.07,860.234 1393.24,868.401 1403,878.5C 1412.3,892.7 1416.8,908.367 1416.5,925.5C 1415.62,949.236 1412.12,972.569 1406,995.5C 1394.12,1035.49 1380.45,1074.82 1365,1113.5C 1356.97,1131.51 1347.3,1148.51 1336,1164.5C 1328.25,1174.25 1318.75,1181.75 1307.5,1187C 1303.07,1190.09 1300.24,1194.26 1299,1199.5C 1297.43,1218.47 1297.09,1237.47 1298,1256.5C 1298.53,1265.45 1300.7,1273.95 1304.5,1282C 1310.27,1283.22 1315.6,1282.22 1320.5,1279C 1333.5,1269 1344,1256.83 1352,1242.5C 1366.71,1215.42 1378.37,1187.08 1387,1157.5C 1391.54,1135.94 1395.54,1114.27 1399,1092.5C 1407.22,1048.85 1421.22,1007.18 1441,967.5C 1445.52,959.325 1451.35,952.158 1458.5,946C 1466.76,940.828 1475.76,939.161 1485.5,941C 1509.16,946.307 1525.99,960.141 1536,982.5C 1541.85,998.327 1543.85,1014.66 1542,1031.5C 1540.94,1047.61 1538.94,1063.61 1536,1079.5C 1525.62,1125.31 1511.62,1169.98 1494,1213.5C 1489.59,1222.66 1484.92,1231.66 1480,1240.5C 1472.35,1254.75 1460.51,1263.25 1444.5,1266C 1442.38,1267.12 1440.54,1268.62 1439,1270.5C 1435.75,1287.19 1437.75,1303.19 1445,1318.5C 1457.98,1332.8 1474.15,1337.97 1493.5,1334C 1501.94,1332.45 1509.27,1328.78 1515.5,1323C 1521.54,1315.29 1528.54,1308.63 1536.5,1303C 1546.47,1298.62 1553.64,1301.45 1558,1311.5C 1558.98,1317.7 1558.32,1323.7 1556,1329.5C 1547.76,1346.4 1535.93,1360.24 1520.5,1371C 1514.85,1373.97 1509.19,1376.97 1503.5,1380C 1488.39,1385.81 1473.39,1391.81 1458.5,1398C 1453.95,1400.88 1450.45,1404.72 1448,1409.5C 1448.43,1429.42 1439.1,1442.42 1420,1448.5C 1414.58,1450.05 1409.08,1451.22 1403.5,1452C 1384.86,1453.5 1366.19,1453.84 1347.5,1453C 1284.08,1450.72 1220.75,1447.39 1157.5,1443C 1151.55,1448.95 1145.55,1454.95 1139.5,1461C 1125.29,1471.39 1109.29,1476.22 1091.5,1475.5C 1066.73,1475.31 1043.4,1469.47 1021.5,1458C 1004.97,1447.45 994.474,1432.62 990,1413.5C 988.813,1405.86 987.813,1398.19 987,1390.5C 987.353,1362.33 988.187,1334.16 989.5,1306C 984.605,1223.08 985.772,1140.24 993,1057.5C 997.912,1001.29 1004.58,945.29 1013,889.5C 1022.49,840.888 1031.66,792.221 1040.5,743.5C 1038.98,733.769 1036.15,724.435 1032,715.5C 1027.73,701.479 1030.9,689.479 1041.5,679.5C 1048.13,673.038 1055.46,667.538 1063.5,663C 1078.99,654.588 1094.99,647.255 1111.5,641C 1122.07,637.632 1132.74,635.466 1143.5,634.5 Z"/></g>
<g><path style="opacity:1" fill="#fefefe" d="M 1784.5,655.5 C 1821.07,658.991 1857.74,661.491 1894.5,663C 1915.62,664.243 1934.95,670.576 1952.5,682C 1965.75,692.636 1974.91,706.136 1980,722.5C 1993.04,765.509 1999.21,809.509 1998.5,854.5C 1997.66,927.144 1984.82,997.477 1960,1065.5C 1953.76,1080.47 1944.26,1092.97 1931.5,1103C 1922.32,1108.56 1914.48,1107.06 1908,1098.5C 1900.02,1081.01 1897.35,1062.68 1900,1043.5C 1905,1003.81 1908.17,963.975 1909.5,924C 1909.85,891.925 1907.35,860.092 1902,828.5C 1899.88,818.568 1894.21,811.568 1885,807.5C 1877.99,812.167 1872.32,818.167 1868,825.5C 1854.56,854.151 1844.9,884.151 1839,915.5C 1816.51,1025.74 1806.84,1137.07 1810,1249.5C 1811,1276.53 1817.34,1302.2 1829,1326.5C 1844.48,1352.31 1866.98,1361.81 1896.5,1355C 1909.89,1350.81 1921.56,1343.81 1931.5,1334C 1937.89,1328.96 1942.72,1322.79 1946,1315.5C 1942.11,1234.48 1956.45,1156.81 1989,1082.5C 2000.14,1056.04 2015.98,1032.87 2036.5,1013C 2042.34,1008.5 2048.67,1004.84 2055.5,1002C 2065.8,999.779 2073.97,1002.95 2080,1011.5C 2085.67,1020.5 2091.33,1029.5 2097,1038.5C 2103,1046.47 2111,1049.81 2121,1048.5C 2139.03,1048.82 2153.03,1041.49 2163,1026.5C 2173.02,1010.47 2182.02,993.805 2190,976.5C 2207.66,944.247 2231.82,938.414 2262.5,959C 2269.23,966.631 2273.73,975.464 2276,985.5C 2278.8,1001.29 2282.13,1016.96 2286,1032.5C 2291.31,1033.05 2295.64,1031.05 2299,1026.5C 2303.53,1019.57 2306.2,1011.9 2307,1003.5C 2309.46,953.934 2316.13,904.934 2327,856.5C 2334.35,834.91 2349.18,826.41 2371.5,831C 2392.79,836.711 2400.96,850.544 2396,872.5C 2394.33,883.832 2392.67,895.166 2391,906.5C 2390.33,912.167 2390.33,917.833 2391,923.5C 2402.92,924.584 2414.08,928.084 2424.5,934C 2432.41,940.628 2438.24,948.795 2442,958.5C 2458.84,1012.55 2466.17,1067.89 2464,1124.5C 2464.29,1126.04 2464.96,1127.38 2466,1128.5C 2476.96,1086.66 2487.29,1044.66 2497,1002.5C 2506,971.96 2522.84,946.793 2547.5,927C 2558.32,919.303 2570.32,916.303 2583.5,918C 2589.98,926.136 2594.48,935.302 2597,945.5C 2599.5,955.359 2601.17,965.359 2602,975.5C 2604.14,1051.33 2591.81,1124.67 2565,1195.5C 2557.43,1214.08 2546.27,1230.25 2531.5,1244C 2525.08,1248.76 2518.42,1253.09 2511.5,1257C 2509.68,1258.8 2508.52,1260.97 2508,1263.5C 2503.67,1290.16 2507.67,1315.49 2520,1339.5C 2527.98,1353.82 2539.14,1356.99 2553.5,1349C 2563.89,1342.4 2571.06,1333.23 2575,1321.5C 2597.5,1253.65 2610.5,1183.99 2614,1112.5C 2614.85,1080.15 2616.18,1047.81 2618,1015.5C 2617.62,982.229 2633.45,961.396 2665.5,953C 2675.1,950.484 2684.43,951.151 2693.5,955C 2696.94,957.98 2698.61,961.813 2698.5,966.5C 2697.86,970.54 2697.03,974.54 2696,978.5C 2692,983.833 2687.33,988.5 2682,992.5C 2678.48,996.075 2677.82,1000.07 2680,1004.5C 2684.86,1008.6 2689.52,1012.93 2694,1017.5C 2695.4,1020.36 2696.4,1023.36 2697,1026.5C 2696.34,1080.6 2698.34,1134.6 2703,1188.5C 2705.05,1213.82 2709.05,1238.82 2715,1263.5C 2724.51,1294.64 2742.68,1319.14 2769.5,1337C 2785.72,1344.52 2802.39,1345.52 2819.5,1340C 2825.94,1337.94 2832.28,1335.61 2838.5,1333C 2852.04,1326.06 2865.71,1319.39 2879.5,1313C 2893.5,1307.25 2902.33,1311.75 2906,1326.5C 2907.07,1344.86 2900.57,1360.03 2886.5,1372C 2855.21,1397.76 2819.21,1409.1 2778.5,1406C 2743.41,1400.58 2716.58,1382.75 2698,1352.5C 2678.11,1315.29 2665.78,1275.63 2661,1233.5C 2658.43,1213.22 2656.43,1192.89 2655,1172.5C 2654.59,1167.38 2652.59,1163.04 2649,1159.5C 2641.78,1200.5 2634.44,1241.5 2627,1282.5C 2621.11,1308.83 2612.45,1334.16 2601,1358.5C 2590.75,1378.41 2575.59,1393.25 2555.5,1403C 2534.6,1410.54 2515.6,1407.2 2498.5,1393C 2480.76,1376.16 2469.6,1355.66 2465,1331.5C 2460.14,1301.04 2458.14,1270.37 2459,1239.5C 2458.78,1238.06 2458.28,1236.73 2457.5,1235.5C 2454.42,1241.82 2452.25,1248.48 2451,1255.5C 2444.23,1300.35 2427.57,1341.02 2401,1377.5C 2395.05,1384.46 2388.22,1390.29 2380.5,1395C 2368.05,1399.48 2356.55,1405.64 2346,1413.5C 2344.4,1426.45 2343.4,1439.45 2343,1452.5C 2342.42,1482.34 2342.58,1512.17 2343.5,1542C 2343.43,1563.23 2342.26,1584.39 2340,1605.5C 2336,1625.74 2323.83,1634.57 2303.5,1632C 2299.59,1630.22 2296.26,1627.72 2293.5,1624.5C 2285.57,1608.84 2281.73,1592.17 2282,1574.5C 2280.9,1482.48 2281.57,1390.48 2284,1298.5C 2288.33,1233.83 2292.5,1169.16 2296.5,1104.5C 2294.5,1104.5 2292.5,1104.5 2290.5,1104.5C 2286.9,1152.22 2282.73,1199.89 2278,1247.5C 2271.99,1295.8 2259.32,1342.13 2240,1386.5C 2232.53,1401.98 2222.69,1415.81 2210.5,1428C 2189.79,1442.46 2169.46,1441.8 2149.5,1426C 2139.08,1416.99 2131.25,1406.15 2126,1393.5C 2116.41,1367.45 2111.41,1340.45 2111,1312.5C 2109.88,1269.49 2113.22,1226.82 2121,1184.5C 2127,1158.18 2132.83,1131.85 2138.5,1105.5C 2138.84,1100 2136.17,1097.17 2130.5,1097C 2123.83,1096.61 2117.16,1096.78 2110.5,1097.5C 2116.69,1176.59 2110.19,1254.59 2091,1331.5C 2084.91,1351.77 2077.24,1371.44 2068,1390.5C 2060.7,1404.14 2050.86,1415.64 2038.5,1425C 2014.3,1439.61 1993.47,1435.78 1976,1413.5C 1968.61,1403.1 1961.61,1392.44 1955,1381.5C 1954.04,1380.11 1952.71,1379.44 1951,1379.5C 1947.34,1380.58 1943.84,1382.08 1940.5,1384C 1923.24,1395.74 1905.57,1406.74 1887.5,1417C 1801.52,1463.29 1728.02,1448.46 1667,1372.5C 1650.5,1349.29 1639.5,1323.62 1634,1295.5C 1626.98,1254.45 1624.65,1213.11 1627,1171.5C 1640.24,1025.22 1673.91,883.884 1728,747.5C 1738.12,723.928 1748.79,700.595 1760,677.5C 1762.89,672.224 1766.39,667.391 1770.5,663C 1774.83,659.673 1779.49,657.173 1784.5,655.5 Z"/></g>
<g><path style="opacity:1" fill="#fdf8f8" d="M 2785.5,927.5 C 2822.32,926.823 2840.82,944.823 2841,981.5C 2837.06,1003.44 2824.23,1016.94 2802.5,1022C 2774.06,1024.71 2755.56,1012.54 2747,985.5C 2743.66,955.127 2756.49,935.793 2785.5,927.5 Z"/></g>
<g><path style="opacity:1" fill="#ed2226" d="M 2785.5,935.5 C 2808.17,933.242 2823.67,942.575 2832,963.5C 2836.57,986.828 2828.07,1003.33 2806.5,1013C 2789.4,1017.52 2774.9,1013.35 2763,1000.5C 2753.28,986.251 2751.95,971.251 2759,955.5C 2765.45,945.54 2774.28,938.874 2785.5,935.5 Z"/></g>
<g><path style="opacity:1" fill="#fef5f3" d="M 2772.5,950.5 C 2783.23,950.097 2793.9,950.597 2804.5,952C 2813.21,957.602 2814.71,964.769 2809,973.5C 2806.08,975.712 2802.91,977.545 2799.5,979C 2805.92,985.325 2811.25,992.492 2815.5,1000.5C 2812.22,1001.66 2808.88,1001.82 2805.5,1001C 2802,994.329 2798,987.996 2793.5,982C 2789.79,979.868 2785.79,979.035 2781.5,979.5C 2781.5,986.833 2781.5,994.167 2781.5,1001.5C 2778.5,1001.5 2775.5,1001.5 2772.5,1001.5C 2772.5,984.5 2772.5,967.5 2772.5,950.5 Z"/></g>
<g><path style="opacity:1" fill="#ed2126" d="M 2781.5,957.5 C 2787.18,957.334 2792.84,957.501 2798.5,958C 2803.63,960.553 2804.79,964.386 2802,969.5C 2801.25,970.126 2800.42,970.626 2799.5,971C 2793.59,972.361 2787.59,972.861 2781.5,972.5C 2781.5,967.5 2781.5,962.5 2781.5,957.5 Z"/></g>
<g><path style="opacity:1" fill="#ed2528" d="M 1347.5,971.5 C 1351.2,973.234 1352.86,976.234 1352.5,980.5C 1350.92,995.731 1348.09,1010.73 1344,1025.5C 1338.39,1041.66 1332.39,1057.66 1326,1073.5C 1323.53,1077.99 1319.7,1080.32 1314.5,1080.5C 1313.24,1072.81 1313.4,1065.14 1315,1057.5C 1320.41,1031.13 1328.07,1005.46 1338,980.5C 1340.68,976.924 1343.85,973.924 1347.5,971.5 Z"/></g>
<g><path style="opacity:1" fill="#ed2025" d="M 2387.5,1002.5 C 2389.53,1002.34 2391.53,1002.5 2393.5,1003C 2400.01,1013.51 2403.51,1025.01 2404,1037.5C 2407.3,1125.2 2399.3,1211.86 2380,1297.5C 2378.67,1307.01 2374.17,1314.51 2366.5,1320C 2361.95,1321.41 2359.11,1319.91 2358,1315.5C 2355.68,1305.64 2354.35,1295.64 2354,1285.5C 2349.98,1207.4 2355.65,1130.06 2371,1053.5C 2374.96,1039.25 2378.63,1024.91 2382,1010.5C 2383.1,1007.28 2384.94,1004.61 2387.5,1002.5 Z"/></g>
<g><path style="opacity:1" fill="#ed2126" d="M 2554.5,1031.5 C 2557.73,1032.59 2559.57,1034.93 2560,1038.5C 2562.55,1052 2562.55,1065.67 2560,1079.5C 2555.95,1105.35 2548.95,1130.35 2539,1154.5C 2534.68,1162.83 2527.84,1167 2518.5,1167C 2515.98,1151.22 2516.15,1135.39 2519,1119.5C 2523.02,1096.41 2529.69,1074.07 2539,1052.5C 2543.2,1044.76 2548.37,1037.76 2554.5,1031.5 Z"/></g>
<g><path style="opacity:1" fill="#ed2527" d="M 1479.5,1038.5 C 1481.83,1038.5 1484.17,1038.5 1486.5,1038.5C 1487.79,1078.53 1480.29,1116.87 1464,1153.5C 1460.94,1160.73 1455.77,1165.73 1448.5,1168.5C 1447.35,1168.18 1446.52,1167.52 1446,1166.5C 1444.98,1162.07 1444.48,1157.57 1444.5,1153C 1445.08,1139.99 1446.92,1127.16 1450,1114.5C 1456.32,1091.2 1463.66,1068.2 1472,1045.5C 1474.4,1042.93 1476.9,1040.6 1479.5,1038.5 Z"/></g>
<g><path style="opacity:1" fill="#ed2025" d="M 2237.5,1050.5 C 2239.39,1051.05 2241.06,1052.05 2242.5,1053.5C 2244.37,1056.94 2245.54,1060.61 2246,1064.5C 2246.42,1137.9 2237.75,1210.24 2220,1281.5C 2215.19,1300.26 2207.86,1317.93 2198,1334.5C 2194.83,1338.68 2190.83,1341.68 2186,1343.5C 2183.01,1338.18 2181.01,1332.52 2180,1326.5C 2177.09,1302.86 2177.09,1279.19 2180,1255.5C 2183.77,1221.09 2189.77,1187.09 2198,1153.5C 2205,1128.83 2212,1104.16 2219,1079.5C 2222.2,1067.83 2228.37,1058.16 2237.5,1050.5 Z"/></g>
<g><path style="opacity:1" fill="#ed2126" d="M 2066.5,1101.5 C 2068.14,1101.29 2069.64,1101.62 2071,1102.5C 2076.21,1112.64 2078.38,1123.47 2077.5,1135C 2073.24,1190.4 2063.74,1244.9 2049,1298.5C 2046.85,1306.64 2043.02,1313.81 2037.5,1320C 2033.51,1322.67 2029.18,1323.67 2024.5,1323C 2018.51,1311.43 2016.18,1299.09 2017.5,1286C 2020.25,1224.97 2033.75,1166.47 2058,1110.5C 2060.4,1107 2063.23,1104 2066.5,1101.5 Z"/></g>
<g><path style="opacity:1" fill="#e9e5e4" d="M 1402.5,1527.5 C 1409.84,1527.33 1417.17,1527.5 1424.5,1528C 1442.77,1530.77 1452.44,1541.27 1453.5,1559.5C 1446.5,1559.31 1439.83,1559.64 1433.5,1560.5C 1432.16,1556.31 1430.16,1552.48 1427.5,1549C 1423.69,1546.51 1419.52,1545.01 1415,1544.5C 1411.01,1544.76 1406.51,1545.59 1401.5,1547C 1392.78,1551.98 1392.45,1557.31 1400.5,1563C 1412.49,1566.66 1424.49,1570.33 1436.5,1574C 1450.83,1580.03 1457.83,1590.69 1457.5,1606C 1454.56,1622.28 1444.89,1631.94 1428.5,1635C 1414.27,1637.82 1400.6,1636.16 1387.5,1630C 1377.1,1622.53 1371.77,1612.53 1371.5,1600C 1378.18,1598.83 1384.85,1598.66 1391.5,1599.5C 1394.65,1611.32 1402.31,1617.65 1414.5,1618.5C 1421.58,1618.42 1427.75,1616.09 1433,1611.5C 1436.92,1605.24 1436.08,1599.74 1430.5,1595C 1418.6,1591.03 1406.6,1587.36 1394.5,1584C 1376.86,1576.07 1371.02,1562.91 1377,1544.5C 1382.78,1534.7 1391.28,1529.03 1402.5,1527.5 Z"/></g>
<g><path style="opacity:1" fill="#e9e5e4" d="M 1659.5,1527.5 C 1672.22,1525.9 1684.22,1528.06 1695.5,1534C 1704.21,1539.92 1709.55,1548.09 1711.5,1558.5C 1704.54,1559.72 1697.71,1561.39 1691,1563.5C 1685.73,1548.18 1675.23,1542.68 1659.5,1547C 1651.51,1549.78 1646.35,1555.28 1644,1563.5C 1639.8,1579.03 1641.13,1594.03 1648,1608.5C 1655.75,1617.39 1665.25,1619.89 1676.5,1616C 1680.24,1614.26 1683.41,1611.76 1686,1608.5C 1688.09,1604.01 1690.26,1599.68 1692.5,1595.5C 1698.07,1597.63 1703.73,1599.47 1709.5,1601C 1710.52,1601.52 1711.18,1602.35 1711.5,1603.5C 1705.09,1624.97 1690.59,1635.97 1668,1636.5C 1635.99,1632.98 1619.82,1614.98 1619.5,1582.5C 1618.79,1563.1 1625.79,1547.27 1640.5,1535C 1646.51,1531.32 1652.84,1528.82 1659.5,1527.5 Z"/></g>
<g><path style="opacity:1" fill="#eae4e3" d="M 1898.5,1634.5 C 1898.83,1609.16 1898.5,1583.82 1897.5,1558.5C 1896.89,1558.62 1896.56,1558.96 1896.5,1559.5C 1889.48,1565.68 1881.48,1570.35 1872.5,1573.5C 1871.34,1567.53 1871.17,1561.53 1872,1555.5C 1885.13,1550.54 1894.96,1541.87 1901.5,1529.5C 1907.13,1528.5 1912.79,1528.17 1918.5,1528.5C 1918.5,1563.83 1918.5,1599.17 1918.5,1634.5C 1911.83,1634.5 1905.17,1634.5 1898.5,1634.5 Z"/></g>
<g><path style="opacity:1" fill="#e9e5e4" d="M 1975.5,1528.5 C 2000.09,1528.58 2013.92,1540.92 2017,1565.5C 2018.12,1579.61 2017.46,1593.61 2015,1607.5C 2007.82,1629.84 1992.66,1639.01 1969.5,1635C 1957.01,1631.01 1950.34,1622.51 1949.5,1609.5C 1955.38,1609.24 1961.22,1608.57 1967,1607.5C 1969.01,1610.49 1970.84,1613.65 1972.5,1617C 1984.64,1621.57 1992.14,1617.4 1995,1604.5C 1996.16,1599.87 1996.5,1595.21 1996,1590.5C 1989.11,1598.01 1980.61,1600.51 1970.5,1598C 1955.05,1592.31 1947.05,1581.14 1946.5,1564.5C 1947.48,1545.21 1957.15,1533.21 1975.5,1528.5 Z"/></g>
<g><path style="opacity:1" fill="#e9e5e4" d="M 2060.5,1528.5 C 2081.46,1527.9 2093.96,1537.9 2098,1558.5C 2101.33,1574.5 2101.33,1590.5 2098,1606.5C 2093.09,1629.09 2079.25,1638.59 2056.5,1635C 2044.33,1631.18 2036.83,1623.02 2034,1610.5C 2030.34,1593.18 2030.01,1575.85 2033,1558.5C 2035.6,1542.19 2044.77,1532.19 2060.5,1528.5 Z"/></g>
<g><path style="opacity:1" fill="#e9e4e4" d="M 2142.5,1528.5 C 2152.58,1527.68 2161.91,1529.85 2170.5,1535C 2180.66,1545.73 2182.16,1557.56 2175,1570.5C 2172.44,1573.19 2169.61,1575.52 2166.5,1577.5C 2182.07,1586.37 2186.91,1599.37 2181,1616.5C 2174.4,1629.92 2163.57,1636.58 2148.5,1636.5C 2117.98,1632.79 2107.81,1616.46 2118,1587.5C 2121.58,1583.25 2125.75,1579.75 2130.5,1577C 2121.2,1572.9 2116.53,1565.74 2116.5,1555.5C 2116.85,1543.63 2122.52,1535.47 2133.5,1531C 2136.63,1530.16 2139.63,1529.33 2142.5,1528.5 Z"/></g>
<g><path style="opacity:1" fill="#e9e6e6" d="M 1474.5,1528.5 C 1481.54,1528.91 1488.54,1528.91 1495.5,1528.5C 1495.5,1563.83 1495.5,1599.17 1495.5,1634.5C 1488.5,1634.5 1481.5,1634.5 1474.5,1634.5C 1474.5,1599.17 1474.5,1563.83 1474.5,1528.5 Z"/></g>
<g><path style="opacity:1" fill="#e9e4e4" d="M 1517.5,1528.5 C 1524.45,1528.2 1531.29,1528.54 1538,1529.5C 1551.92,1552.33 1566.08,1575 1580.5,1597.5C 1581.44,1574.97 1581.44,1552.64 1580.5,1530.5C 1580.89,1529.28 1581.72,1528.61 1583,1528.5C 1589.06,1528.65 1595.06,1528.98 1601,1529.5C 1601.67,1564.17 1601.67,1598.83 1601,1633.5C 1593.91,1634.65 1586.75,1634.81 1579.5,1634C 1564.96,1611.75 1550.79,1589.25 1537,1566.5C 1536.5,1589.16 1536.33,1611.83 1536.5,1634.5C 1529.83,1634.5 1523.17,1634.5 1516.5,1634.5C 1516.17,1599.09 1516.51,1563.76 1517.5,1528.5 Z"/></g>
<g><path style="opacity:1" fill="#e9e5e5" d="M 1752.5,1569.5 C 1769.66,1570.5 1786.99,1570.83 1804.5,1570.5C 1804.5,1576.17 1804.5,1581.83 1804.5,1587.5C 1803.21,1587.26 1802.21,1587.6 1801.5,1588.5C 1785.2,1587.69 1768.86,1587.53 1752.5,1588C 1751.51,1597.42 1751.18,1606.92 1751.5,1616.5C 1771.5,1616.5 1791.5,1616.5 1811.5,1616.5C 1811.5,1622.5 1811.5,1628.5 1811.5,1634.5C 1784.5,1634.5 1757.5,1634.5 1730.5,1634.5C 1730.5,1599.17 1730.5,1563.83 1730.5,1528.5C 1756.8,1529.43 1782.96,1529.77 1809,1529.5C 1809.83,1535.2 1809.66,1540.86 1808.5,1546.5C 1807.91,1546.71 1807.41,1547.04 1807,1547.5C 1788.72,1546.9 1770.55,1546.73 1752.5,1547C 1751.17,1554.6 1751.17,1562.1 1752.5,1569.5 Z"/></g>
<g><path style="opacity:1" fill="#ed2126" d="M 1976.5,1545.5 C 1988.2,1546.03 1994.53,1552.2 1995.5,1564C 1995.16,1568.77 1993.99,1573.6 1992,1578.5C 1986.15,1584.08 1979.65,1584.91 1972.5,1581C 1966.91,1572.95 1965.41,1564.45 1968,1555.5C 1969.26,1550.75 1972.09,1547.41 1976.5,1545.5 Z"/></g>
<g><path style="opacity:1" fill="#ed2026" d="M 2062.5,1545.5 C 2067.91,1544.96 2072.08,1546.96 2075,1551.5C 2076.81,1555.98 2077.81,1560.64 2078,1565.5C 2078.86,1579.2 2078.53,1592.87 2077,1606.5C 2075.46,1616.41 2069.96,1620.24 2060.5,1618C 2055.03,1612.34 2052.53,1605.5 2053,1597.5C 2052.24,1584.19 2052.58,1571.19 2054,1558.5C 2054.85,1552.77 2057.69,1548.44 2062.5,1545.5 Z"/></g>
<g><path style="opacity:1" fill="#ed2327" d="M 2145.5,1544.5 C 2157.69,1544.53 2162.52,1550.53 2160,1562.5C 2155.98,1569.14 2150.15,1571.3 2142.5,1569C 2135.57,1564.45 2133.73,1558.28 2137,1550.5C 2139.32,1547.6 2142.16,1545.6 2145.5,1544.5 Z"/></g>
<g><path style="opacity:1" fill="#f5aea4" d="M 1896.5,1559.5 C 1896.56,1558.96 1896.89,1558.62 1897.5,1558.5C 1898.5,1583.82 1898.83,1609.16 1898.5,1634.5C 1897.83,1609.5 1897.17,1584.5 1896.5,1559.5 Z"/></g>
<g><path style="opacity:1" fill="#f58c82" d="M 1752.5,1569.5 C 1770.17,1569.5 1787.83,1569.5 1805.5,1569.5C 1805.5,1575.83 1805.5,1582.17 1805.5,1588.5C 1804.17,1588.5 1802.83,1588.5 1801.5,1588.5C 1802.21,1587.6 1803.21,1587.26 1804.5,1587.5C 1804.5,1581.83 1804.5,1576.17 1804.5,1570.5C 1786.99,1570.83 1769.66,1570.5 1752.5,1569.5 Z"/></g>
<g><path style="opacity:1" fill="#ed2226" d="M 2143.5,1586.5 C 2152.05,1584.86 2158.22,1587.86 2162,1595.5C 2162.85,1601.25 2162.52,1606.92 2161,1612.5C 2156.87,1618.97 2151.04,1621.14 2143.5,1619C 2138.16,1616.99 2135,1613.16 2134,1607.5C 2131.95,1597.95 2135.11,1590.95 2143.5,1586.5 Z"/></g>
</svg>
