<?xml version="1.0" encoding="UTF-8" standalone="no"?>
<svg
   xmlns:dc="http://purl.org/dc/elements/1.1/"
   xmlns:cc="http://creativecommons.org/ns#"
   xmlns:rdf="http://www.w3.org/1999/02/22-rdf-syntax-ns#"
   xmlns:svg="http://www.w3.org/2000/svg"
   xmlns="http://www.w3.org/2000/svg"
   xmlns:sodipodi="http://sodipodi.sourceforge.net/DTD/sodipodi-0.dtd"
   xmlns:inkscape="http://www.inkscape.org/namespaces/inkscape"
   width="103.32301mm"
   height="17.915335mm"
   viewBox="0 0 103.32301 17.915335"
   version="1.1"
   id="svg52"
   inkscape:version="1.0.2-2 (e86c870879, 2021-01-15)"
   sodipodi:docname="miumiu_logo_2024.svg">
  <defs
     id="defs46" />
  <sodipodi:namedview
     id="base"
     pagecolor="#ffffff"
     bordercolor="#666666"
     borderopacity="1.0"
     inkscape:pageopacity="0.0"
     inkscape:pageshadow="2"
     inkscape:zoom="3.7181939"
     inkscape:cx="195.25609"
     inkscape:cy="33.855751"
     inkscape:document-units="mm"
     inkscape:current-layer="layer1"
     inkscape:document-rotation="0"
     showgrid="false"
     inkscape:window-width="1920"
     inkscape:window-height="1017"
     inkscape:window-x="-8"
     inkscape:window-y="-8"
     inkscape:window-maximized="1"
     fit-margin-top="1"
     fit-margin-left="1"
     fit-margin-right="1"
     fit-margin-bottom="1"
     lock-margins="true" />
  <metadata
     id="metadata49">
    <rdf:RDF>
      <cc:Work
         rdf:about="">
        <dc:format>image/svg+xml</dc:format>
        <dc:type
           rdf:resource="http://purl.org/dc/dcmitype/StillImage" />
        <dc:title></dc:title>
      </cc:Work>
    </rdf:RDF>
  </metadata>
  <g
     inkscape:label="Camada 1"
     inkscape:groupmode="layer"
     id="layer1"
     transform="translate(-21.431189,-18.17609)">
    <path
       id="path96"
       style="fill:#000000;stroke-width:0.227934;stroke-linecap:square;stop-color:#000000"
       d="m 108.55664,72.476562 a 23.952756,23.952756 0 0 0 -23.777343,23.951172 23.952756,23.952756 0 0 0 0,0.0039 V 128.31836 H 101.2207 V 96.431641 h -0.002 a 7.5118105,7.5118105 0 0 1 0,-0.0039 7.5118105,7.5118105 0 0 1 7.51172,-7.511718 7.5118105,7.5118105 0 0 1 7.51367,7.511718 7.5118105,7.5118105 0 0 1 0,0.0039 v 29.529299 a 30.472441,30.472441 0 0 1 -0.002,0 v 2.35742 h 0.002 16.43945 V 115.26562 96.431641 a 23.952756,23.952756 0 0 0 0,-0.0039 23.952756,23.952756 0 0 0 -23.78125,-23.951172 z m 31.46289,0 a 23.952756,23.952756 0 0 0 -9.91797,2.230469 30.472441,30.472441 0 0 1 8.22071,14.445313 7.5118104,7.5118104 0 0 1 1.87109,-0.236328 7.5118104,7.5118104 0 0 1 7.51367,7.511718 7.5118104,7.5118104 0 0 1 0,0.0039 v 31.886716 h 16.43945 V 96.431641 a 23.952756,23.952756 0 0 0 0,-0.0039 23.952756,23.952756 0 0 0 -23.78125,-23.951172 z m 177.73047,0 a 23.952756,23.952756 0 0 0 -23.77734,23.951172 23.952756,23.952756 0 0 0 0,0.0039 v 31.886716 h 16.4414 V 96.431641 h -0.002 a 7.5118106,7.5118106 0 0 1 0,-0.0039 7.5118106,7.5118106 0 0 1 7.51172,-7.511718 7.5118106,7.5118106 0 0 1 7.51367,7.511718 7.5118106,7.5118106 0 0 1 0,0.0039 v 29.529299 a 30.472441,30.472441 0 0 1 -0.002,0 v 2.35742 h 0.002 16.43945 V 115.26562 96.431641 a 23.952756,23.952756 0 0 0 0,-0.0039 23.952756,23.952756 0 0 0 -23.78125,-23.951172 z m 31.46289,0 a 23.952756,23.952756 0 0 0 -9.91797,2.230469 30.472441,30.472441 0 0 1 8.2207,14.445313 7.5118103,7.5118103 0 0 1 1.8711,-0.236328 7.5118103,7.5118103 0 0 1 7.51367,7.511718 7.5118103,7.5118103 0 0 1 0,0.0039 v 31.886716 h 16.43945 V 96.431641 a 23.952756,23.952756 0 0 0 0,-0.0039 23.952756,23.952756 0 0 0 -23.78125,-23.951172 z m -170.04297,4.535157 v 51.306641 h 16.44141 V 77.011719 Z m 31.46485,0 v 31.886721 a 23.952756,23.952756 0 0 0 0,0.004 23.952756,23.952756 0 0 0 20.6914,23.72657 v -16.96094 a 7.5118105,7.5118105 0 0 1 -4.25195,-6.76563 7.5118105,7.5118105 0 0 1 0,-0.004 h 0.002 V 77.011719 Z m 31.46484,0 v 31.886721 a 7.5118105,7.5118105 0 0 1 0,0.004 7.5118105,7.5118105 0 0 1 -4.25391,6.76758 v 16.95899 a 23.952756,23.952756 0 0 0 20.69336,-23.72657 23.952756,23.952756 0 0 0 0,-0.004 V 77.011719 Z m 146.26367,0 v 51.306641 h 16.44141 V 77.011719 Z m 31.46484,0 v 31.886721 a 23.952756,23.952756 0 0 0 0,0.004 23.952756,23.952756 0 0 0 20.69141,23.72657 v -16.96094 a 7.5118106,7.5118106 0 0 1 -4.25195,-6.76563 7.5118106,7.5118106 0 0 1 0,-0.004 h 0.002 V 77.011719 Z m 31.46485,0 v 31.886721 a 7.5118106,7.5118106 0 0 1 0,0.004 7.5118106,7.5118106 0 0 1 -4.25391,6.76758 v 16.95899 a 23.952756,23.952756 0 0 0 20.69336,-23.72657 23.952756,23.952756 0 0 0 0,-0.004 V 77.011719 Z"
       transform="scale(0.26458333)" />
  </g>
</svg>
