<?xml version="1.0" encoding="ISO-8859-1" standalone="yes"?>
<!DOCTYPE svg PUBLIC "-//W3C//DTD SVG 20010904//EN"
  "http://www.w3.org/TR/2001/REC-SVG-20010904/DTD/svg10.dtd">
<svg width="14.9999cm" height="7cm" viewBox="0 0 2125.9766 992.125" version="1.0"
    xmlns="http://www.w3.org/2000/svg">
<desc>
  Exported by the ArtWorks SVGExport module.
  Source document: Untitled1
</desc>
<g transform="matrix(1 0 0 -1 0 992.125)" stroke-miterlimit="16" fill-rule="evenodd" clip-rule="evenodd" stroke-linejoin="bevel" stroke-linecap="butt">
<g>
<path d="M1067.9844 235.3672 C1068.4219 237.6641 1071.7188 240.0313 1073.6953 239.3594 L1085.8828 235.0234 C1087.4141 234.4844 1088.5938 232.7422 1088.3828 231.1641 1082.2813 188.2422 1035.0859 142.0313 979.0078 142.0313 898.0234 142.0313 859.0469 201.1953 859.9063 259.7188 860.5781 317.9297 900.7813 376.9609 979.0078 376.9609 1035.5781 376.9609 1084.9531 334.9297 1084.9531 277.7266 1084.9531 275.8281 1083.3203 274.1953 1081.2109 274.1953 L905.2109 274.1953 C898.6953 222.875 933.1406 168.3516 979.3594 168.3516 1049.25 168.3516 1067.9844 235.25 1067.9844 235.3672 M978.7031 349.2734 C946.1641 350.0547 910.2969 333.1797 909.3047 297.2031 L1035.7109 297.3672 C1032.0234 329.5859 1011.5547 348.4609 978.7031 349.2734" fill="#000000" fill-rule="nonzero"/>
<path d="M1530.25 260.1563 C1530.25 331.2578 1493.3672 348.8047 1453.1641 348.8047 1413.8906 348.8047 1380.4609 310.3906 1380.4609 260.8047 1380.4609 211.25 1413.8906 172.5547 1453.1641 172.5547 1493.25 172.5547 1530.25 193.4922 1530.25 260.1563 M1331.2344 259.0391 C1331.2344 323.9219 1386.0313 376.8203 1453.7734 376.8203 1482.9688 376.8203 1509.7109 367.1172 1530.7656 350.8906 L1530.7656 369.25 C1530.7656 371.4609 1532.6406 373.2031 1534.9219 372.8516 L1583.2734 366.4453 C1588.9844 365.7188 1592.8125 362.3125 1591.5859 357.3906 1590.5391 354.1641 1587.7813 351.375 1584.5234 350.2188 1579.0703 347.4297 1576.3516 341.375 1575.0547 335.5469 1573.8672 329.6563 1573.9844 324.4766 1573.9844 324.4766 L1573.9844 165.1484 C1573.9844 29.2344 1400.9141 36.3438 1357.3438 97.3438 1357.1406 97.3438 1356.7422 98.2734 1357.3438 99.5938 L1358 100.5234 C1358.4297 101.5469 1359.1094 102.5703 1360.0391 103.9375 1362.0156 106.8828 1364.1953 110.6016 1366.6953 114.2891 1369.2031 118.0547 1369.5313 118.8906 1371.3672 121.4375 1372.4063 122.8516 1372.7891 122.4375 1373.3359 123.1094 1373.6172 123.625 1373.9922 124.1719 1374.2656 124.3672 1376.0313 125.5234 1377.4922 124.1719 1377.9766 123.1094 1408.2266 67.2578 1532.6406 58.9922 1532.6406 160.5469 L1532.6406 174.6172 C1511.75 157.6953 1483.25 143.1172 1453.7734 143.1172 1386.0313 143.1172 1331.2344 194.0938 1331.2344 259.0391" fill="#000000" fill-rule="nonzero"/>
<path d="M585.0938 262.2188 C474.8203 273.1328 454.2656 212.3125 477.5781 184.4609 499.2109 158.6484 591.0625 145.4609 585.0938 262.2188 M457.1016 318.2344 C454.9844 310.6484 456.1719 304.3047 449.2109 306.2031 444.6406 307.5781 441.2734 313.1953 439.2969 317.1875 436.9766 322.5469 434.3828 329.1875 432.6797 334.5781 431.8047 337.6094 431.1484 340.0938 430.9688 341.9766 430.7578 343.1406 430.7578 344.1875 430.7578 345.1563 431.1484 345.9922 431.4297 347.7344 433.0547 348.8047 514.7109 401.4922 626.375 376.375 626.375 304.1406 626.375 248.9688 625.625 215.6094 627.2031 195.1797 628.7578 174.7578 632.7031 169.2578 640.4531 166.2578 645.9063 163.9609 646.1719 150.6875 637.6484 149.9688 L592.8516 149.9688 C592.6875 149.9688 591.7344 150.2188 591.0625 151.3125 590.6875 151.6406 590.625 152.0078 590.5234 152.4922 L589.8516 153.3828 C588.3906 156.0703 588.3906 158.9766 587.7422 161.4375 586.9141 163.8281 585.75 166.4063 585.1641 168.625 539.2813 123.1406 421.4219 128.2109 421.4219 206.6484 421.4219 255.8594 464.2969 274.875 504.2656 281.8359 524.5078 285.3203 544.6563 286.1328 559.9531 285.9922 567.3828 285.9922 573.6328 285.8047 578.1094 285.8047 580.125 285.625 586.1172 285.625 587.25 285.625 587.25 377.5625 469.6406 360.8516 457.1016 318.2344" fill="#000000" fill-rule="nonzero"/>
<path d="M296.2891 367.1172 C293.2969 364.8203 290.2266 365.3047 287.6563 367 283.875 369.5547 282.6563 378.6563 280.7578 384.6172 250.9063 445.6875 108.7109 432.8984 114.4219 370.6719 116.0469 353.8594 134.6641 339.2813 153.4609 332.3672 162.8672 328.8906 174.0547 326.1719 185.3125 323.6406 197.1953 321.2969 209.75 319.0938 222.3125 316.6797 271.5 306.9219 323.9375 296.6719 323.9375 238.3125 323.9375 121.9531 129.6484 123.0234 51.0313 174.9688 49.9375 175.7109 49.2656 177.6641 49.8438 178.9141 L65.2969 227.4922 C67.5547 232.0938 72.4063 234.8125 77.4688 231.5859 81.4141 229.125 82.1094 218.5625 83.9922 210.1094 96.6406 158.4844 276.6719 145.625 276.6719 215.4453 276.6719 237.3125 260.9141 253.9141 242.7109 262.0078 233.5859 266.1172 222.75 269.1875 210.9844 271.8828 199.3047 274.3359 186.6875 276.4063 174.0547 278.8203 123.7578 288.0313 69.4297 300.9219 69.4297 364.4297 69.4297 451.75 210.0391 479.1641 311.4453 421.7344 312.7031 420.9219 313.375 418.9766 313 417.6953 L300.6484 375.7109 C299.6797 372.1094 298.3359 368.9219 296.2891 367.1172" fill="#000000" fill-rule="nonzero"/>
<path d="M351 194.5313 351 399.9375 C350.7891 401.8672 350.6328 404.0313 350.4688 406.4844 350.0078 408.6172 349.4219 410.7109 348.4453 412.7734 346.7109 416.7266 343.1016 420.6719 335.1953 423.5938 325.2109 427.0547 333.2656 441.75 339.2969 442.1406 343.8047 442.2578 348.6328 443.6953 353.875 445.4375 359.1719 447.3203 364.6484 449.5234 369.2891 451.2578 374.1172 452.9609 378.9688 454.5156 382.5 454.5156 387.1406 454.3047 390.5781 451.4297 390.5781 445.5547 L390.5781 193.9531 C391.1094 181.6484 392.8281 169.6719 401.5625 167.8203 404.8516 167.2188 408.125 164.1563 409.3281 160.7188 410.8203 155.9297 407.9375 152.0078 402.3672 150.5938 L401.7422 150.4531 341.8359 150.4531 C335.4922 150.4531 331.6875 153.3828 332.0156 158 332.3125 162.0859 335.8438 165.8906 340.5547 167.6328 346.5391 169.8828 351 182.3984 351 194.5313" fill="#000000" fill-rule="nonzero"/>
<path d="M1883.1094 195.0391 C1883.6797 182.2344 1885.5 169.9766 1894.3359 168.0938 1897.8203 167.2813 1901.2266 164.3828 1902.4844 160.8516 1904.1172 155.9609 1901.0234 151.8281 1895.4766 150.4297 L1894.8203 150.2188 1836.75 150.2188 C1830.3906 150.2188 1826.3516 153.2422 1826.7031 158 1826.8203 161.9219 1830.4531 166.0234 1835.4453 167.9375 1842.8125 170.6563 1846.25 183.1797 1846.5469 195.7188 L1847.6875 321.7344 C1847.4219 323.8047 1847.3047 325.9609 1846.9375 328.4219 1846.5469 330.5859 1846.0156 332.875 1845.0156 335.0625 1843.1094 339.0313 1839.5156 343.1406 1831.0391 346.1328 1823.5234 348.8047 1825.1875 362.3125 1834.1953 362.5 1838.7656 362.8984 1843.9844 364.1953 1849.3047 366.125 1855.0859 368 1860.4453 370.3438 1865.4375 372.1094 1870.2266 373.8906 1875.3516 375.4219 1879.1328 375.4219 1883.8516 375.2656 1883.1094 372.2969 1883.1094 366.4453 L1882.5938 338.5 C1885.5 342.6016 1893.7344 352.4219 1898.375 356.8828 1910.3281 368.6094 1928.8281 379.2109 1954.5313 374.1563 1956.7344 373.6641 1957.7109 371.6016 1957.2188 369.5391 L1945.8672 330.9297 C1945.3594 329.0703 1943.1328 327.9063 1941.25 328.7031 1887.8359 351.1953 1883.0156 282.25 1883.1094 279.4922 L1883.1094 195.0391 Z" fill="#000000" fill-rule="nonzero"/>
<path d="M1108.5547 190.4219 1108.5547 300.3594 C1108.5547 320.625 1104.4453 331.1094 1100.8281 336.3125 1099.0859 339.0313 1097.1563 340.3984 1096 341.2188 1095.5313 341.375 1095.2969 341.5859 1095.1172 341.7266 1091.2188 341.9766 1087.6484 345.1563 1086.3438 348.4609 1084.9531 353.8594 1089.0625 358.0469 1095.9063 359.3438 L1143.7266 372.2969 C1146.625 372.9688 1148.7891 370.9531 1148.1328 368.2031 1147.0469 361.6406 1147.4844 346.3906 1147.8281 339.75 1183.0156 397.2422 1309.8047 390.4922 1309.8047 282.3906 L1309.8047 190.4219 C1309.8047 189.5469 1309.6641 187.6406 1309.8047 185.2344 1310.0156 183 1310.0156 180.3281 1310.6641 177.75 1311.5 172.25 1313.8047 168.625 1317.2344 167.6094 1322.6406 166.0234 1326.0859 162.1016 1326.8672 158.1172 1327.4297 153.75 1324.5938 149.2734 1318.9297 149.2734 L1259.0234 149.2734 C1253.3047 149.2734 1249.6172 153.2422 1250.1563 158.1172 1250.8203 162.4531 1254.5625 166.2578 1260.1094 167.6094 1262.3438 168.0938 1264.0781 168.7734 1265.8203 171.1641 1267.5859 173.9453 1269.4844 179.6094 1269.4844 190.5938 1269.4844 190.5938 1271.0625 233.5078 1269.4844 282.25 1266.125 369.5391 1153.0313 368.3516 1147.8281 282.25 L1147.8281 190.4219 C1147.4844 179.8203 1149.4141 174.4844 1151.4531 171.5938 1153.1953 168.9766 1155.375 168.0938 1157.2813 167.4453 1164.5938 165.1484 1166.8906 161.4375 1166.6875 157.1172 1166.5156 152.125 1163.4297 148.8594 1155.9141 149.2734 L1099.625 149.2734 C1086.0625 148.9219 1081.9297 161.8047 1097.1563 167.4453 1101.2969 168.9766 1108.5547 179.9609 1108.5547 190.4219" fill="#000000" fill-rule="nonzero"/>
<path d="M851.8516 364.4297 C852.4141 360.9922 850.8281 357.1797 849.7891 355.7969 L715.2188 170.2109 C736.2813 169.8828 765.2031 169.2813 787.5078 172.0391 812.0391 175.4766 832.75 188.3594 842.5938 207.0469 846.3047 214.2188 851.7578 217.0313 856.125 214.5859 860.2734 212.3125 861.8125 206.625 860.2734 200.75 854.5703 181.1641 844.5703 152.8203 844.5703 152.8203 844.0703 151.4453 842.5938 150.4531 841.0547 150.4531 L660.7188 150.4531 C660.1172 150.4531 659.1406 150.4531 658.2344 150.5938 657.1641 150.5938 655.3984 150.8281 654.0781 152.0078 650.2734 154.5859 650.9063 158.9766 652.9297 163.3359 L790.2656 350.3828 C771.1641 350.8906 744.7031 351.8438 725.0625 349.5 703.5469 346.9453 686.6719 335.2031 677.8984 317.2656 675.2969 312.0625 669.9141 310.0391 665.4531 310.6484 660.7188 311.2656 656.2656 315.0781 657.5156 321.1328 661.375 340.5625 673.0781 369.5391 673.0781 369.5391 673.375 370.6484 675.1797 371.9688 676.625 371.9688 L841.6406 371.9688 C847.8828 372.2969 851.4375 368.9219 851.8516 364.4297" fill="#000000" fill-rule="nonzero"/>
<path d="M1956.3906 423.8906 422.2891 423.8906 422.2891 444.875 1956.3906 444.875 1956.3906 423.8906 Z" fill="#000000" fill-rule="nonzero"/>
<path d="M1954.7578 73.5703 1587.6641 73.5703 1587.6641 94.6484 1954.7578 94.6484 1954.7578 73.5703 Z" fill="#000000" fill-rule="nonzero"/>
<path d="M1321 73.5703 62.5859 73.5703 62.5859 94.6484 1321 94.6484 1321 73.5703 Z" fill="#000000" fill-rule="nonzero"/>
<path d="M1802.1172 235.3672 C1802.7188 237.6641 1805.9219 240.0313 1808.2266 239.3594 L1820.3359 235.0234 C1821.6172 234.4844 1822.7266 232.7422 1822.5469 231.1641 1816.3984 188.2422 1769.5 142.0313 1713.2344 142.0313 1632.1797 142.0313 1593.4844 201.1953 1594.1094 259.7188 1594.8516 317.9297 1635.2969 376.9609 1713.2344 376.9609 1769.875 376.9609 1819.1328 334.9297 1819.1328 277.7266 1819.1328 275.8281 1817.4375 274.1953 1815.4844 274.1953 L1639.6328 274.1953 C1633.1094 222.875 1667.4609 168.3516 1713.4688 168.3516 1783.4531 168.3516 1802.1172 235.25 1802.1172 235.3672 M1713.0547 349.2734 C1680.4141 350.0547 1644.4063 333.1797 1643.6016 297.2031 L1770.1797 297.3672 C1766.2031 329.5859 1745.7813 348.4609 1713.0547 349.2734" fill="#000000" fill-rule="nonzero"/>
<path d="M1761.6094 861.3984 C1612.1484 846.0859 1547.1797 870.6406 1388.2188 881.9453 1229.5391 893.3906 1086.3672 883.4063 946.1641 883.9844 657.5156 885.6641 503.3906 923.0938 503.3906 923.0938 L500.1875 935.9844 480.5 928.3906 C480.5 928.3906 412.7656 901.6797 395.4063 886.9297 377.9453 872.1719 357.3125 835.6094 349.7969 818.1797 342.1797 800.6328 338.25 778.625 338.25 778.625 L364.8984 753.2266 C364.8984 753.2266 360.75 765.4609 387.0234 780.8281 405.5234 791.7422 417.5 782.0859 420.6641 771.6172 423.8906 761.1484 425.1641 753.0703 411 746.0859 396.9609 739.1641 375.3047 739.6797 375.3047 739.6797 375.3047 739.6797 391.6016 715.4375 430.2188 718.875 438.4844 719.5313 488.0391 741.4141 502.9688 750.375 510.9297 755.3438 540.3672 690.3984 540.5781 667.7656 540.7813 632.8984 499.5625 568.9453 369.2891 544.8516 239.2109 520.8984 228.5078 523.6406 189.5078 507.9531 150.4922 492.4453 134.4297 480.0469 133.5938 471.0391 133.4063 469.8125 275.9531 458.0859 275.9531 458.0859 306.8281 465.3516 385.3359 478.8203 448.0703 496.5781 536.1641 521.2969 765.3906 618.3438 888.2969 655.9219 1004.6563 691.6016 1089.5938 702.6094 1187.7344 696.4063 1315.3125 688.1875 1324.2656 651.7266 1407.1875 620.4609 1499.8516 585.4453 1562.6328 592.2969 1645.3906 555.7656 1710.8438 526.9375 1758.7344 506.2109 1817.1797 483.7109 1876.5313 460.8047 1921.2578 454.7188 1921.9141 472.6641 1922.5625 491.7656 1903.1641 479.2813 1863.2813 510.1094 1827.2109 537.8906 1683.4375 630.8281 1633.3828 654.4453 1584.3828 677.5625 1587.7813 668.5234 1553.4453 696.9375 1508.2734 734.9219 1393.6563 810.7266 1395.4375 839.7422 1396.1094 849.0234 1581.4609 824.3281 1682.7344 823.6328 1820.8672 822.5625 1907.4297 881.0625 1924.7891 891.9922 1934.8438 898.125 1930.8516 911.7734 1921.9141 906.3359 1912.0547 900.6328 1848.1016 870.2422 1761.6094 861.3984" fill="#000000" fill-rule="nonzero"/>
<path d="M1999.1875 82.3984 1999.1875 119.625 1985.5859 119.625 1985.5859 128.4219 2024.3516 128.4219 2024.3516 119.625 2010.75 119.625 2010.75 82.3984 1999.1875 82.3984 Z" fill="#000000" fill-rule="nonzero"/>
<path d="M2076.1328 82.3984 2064.6484 82.3984 2064.6484 112.8984 2056.2734 93.2109 2048.3516 93.2109 2039.9688 112.8984 2039.9688 82.3984 2029.0859 82.3984 2029.0859 128.4219 2042.4375 128.4219 2052.6484 105.6953 2062.8125 128.4219 2076.1328 128.4219 2076.1328 82.3984 Z" fill="#000000" fill-rule="nonzero"/>
</g>
</g>
</svg>
