<?xml version="1.0" encoding="UTF-8"?>
<svg xmlns="http://www.w3.org/2000/svg" xmlns:xlink="http://www.w3.org/1999/xlink" width="176.21pt" height="66.26pt" viewBox="0 0 176.21 66.26" version="1.1">
<defs>
<clipPath id="clip1">
  <path d="M 0 51 L 13 51 L 13 66.261719 L 0 66.261719 Z M 0 51 "/>
</clipPath>
<clipPath id="clip2">
  <path d="M 132 51 L 148 51 L 148 66.261719 L 132 66.261719 Z M 132 51 "/>
</clipPath>
<clipPath id="clip3">
  <path d="M 163 51 L 176.210938 51 L 176.210938 66.261719 L 163 66.261719 Z M 163 51 "/>
</clipPath>
</defs>
<g id="surface1">
<path style=" stroke:none;fill-rule:nonzero;fill:rgb(65.499878%,66.299438%,67.498779%);fill-opacity:1;" d="M 26.625 65.820313 L 33.011719 51.28125 L 39.398438 65.820313 L 36.347656 65.820313 L 33.011719 58.214844 L 29.664063 65.820313 "/>
<g clip-path="url(#clip1)" clip-rule="nonzero">
<path style=" stroke:none;fill-rule:nonzero;fill:rgb(65.499878%,66.299438%,67.498779%);fill-opacity:1;" d="M 12.777344 51.722656 L 6.390625 66.261719 L 0 51.722656 L 3.054688 51.722656 L 6.390625 59.328125 L 9.738281 51.722656 "/>
</g>
<path style=" stroke:none;fill-rule:nonzero;fill:rgb(65.499878%,66.299438%,67.498779%);fill-opacity:1;" d="M 64.792969 65.820313 L 55.394531 65.820313 L 55.394531 51.722656 L 58.183594 51.722656 L 58.183594 63.03125 L 64.792969 63.03125 "/>
<path style=" stroke:none;fill-rule:nonzero;fill:rgb(65.499878%,66.299438%,67.498779%);fill-opacity:1;" d="M 89.871094 65.820313 L 80.621094 65.820313 L 80.621094 51.722656 L 89.433594 51.722656 L 89.433594 54.511719 L 83.410156 54.511719 L 83.410156 57.304688 L 88.992188 57.304688 L 88.992188 60.09375 L 83.410156 60.09375 L 83.410156 63.03125 L 89.871094 63.03125 "/>
<path style=" stroke:none;fill-rule:nonzero;fill:rgb(65.499878%,66.299438%,67.498779%);fill-opacity:1;" d="M 114.148438 56.128906 C 114.148438 55.675781 113.992188 55.296875 113.675781 54.984375 C 113.367188 54.671875 112.984375 54.511719 112.535156 54.511719 L 109.15625 54.511719 L 109.15625 57.742188 L 112.535156 57.742188 C 112.984375 57.742188 113.367188 57.589844 113.675781 57.273438 C 113.992188 56.960938 114.148438 56.578125 114.148438 56.128906 M 116.9375 65.820313 L 113.929688 65.820313 L 111.785156 60.53125 L 109.15625 60.53125 L 109.15625 65.820313 L 106.367188 65.820313 L 106.367188 51.722656 L 112.535156 51.722656 C 113.746094 51.722656 114.785156 52.152344 115.648438 53.015625 C 116.507813 53.875 116.9375 54.914063 116.9375 56.128906 C 116.9375 56.960938 116.722656 57.726563 116.296875 58.421875 C 115.871094 59.113281 115.304688 59.648438 114.589844 60.019531 "/>
<g clip-path="url(#clip2)" clip-rule="nonzero">
<path style=" stroke:none;fill-rule:nonzero;fill:rgb(65.499878%,66.299438%,67.498779%);fill-opacity:1;" d="M 144.371094 58.773438 C 144.371094 57.539063 143.933594 56.484375 143.050781 55.613281 C 142.179688 54.734375 141.125 54.292969 139.894531 54.292969 C 138.65625 54.292969 137.601563 54.734375 136.71875 55.613281 C 135.847656 56.484375 135.414063 57.539063 135.414063 58.773438 C 135.414063 60.003906 135.847656 61.0625 136.71875 61.945313 C 137.601563 62.816406 138.65625 63.25 139.894531 63.25 C 141.125 63.25 142.179688 62.816406 143.050781 61.945313 C 143.933594 61.0625 144.371094 60.003906 144.371094 58.773438 M 147.160156 58.773438 C 147.160156 60.777344 146.449219 62.492188 145.03125 63.910156 C 143.613281 65.332031 141.898438 66.042969 139.894531 66.042969 C 137.886719 66.042969 136.171875 65.332031 134.753906 63.910156 C 133.332031 62.492188 132.625 60.777344 132.625 58.773438 C 132.625 56.761719 133.332031 55.050781 134.753906 53.632813 C 136.171875 52.210938 137.886719 51.5 139.894531 51.5 C 141.898438 51.5 143.613281 52.210938 145.03125 53.632813 C 146.449219 55.050781 147.160156 56.761719 147.160156 58.773438 "/>
</g>
<g clip-path="url(#clip3)" clip-rule="nonzero">
<path style=" stroke:none;fill-rule:nonzero;fill:rgb(65.499878%,66.299438%,67.498779%);fill-opacity:1;" d="M 176.210938 66.261719 L 165.929688 57.378906 L 165.929688 65.820313 L 163.140625 65.820313 L 163.140625 51.28125 L 173.417969 60.167969 L 173.417969 51.722656 L 176.210938 51.722656 "/>
</g>
<path style=" stroke:none;fill-rule:nonzero;fill:rgb(65.499878%,66.299438%,67.498779%);fill-opacity:1;" d="M 95.59375 0.00390625 L 77.5 41.179688 L 59.40625 0.00390625 L 68.058594 0.00390625 L 77.5 21.546875 L 86.984375 0.00390625 "/>
<path style=" stroke:none;fill-rule:nonzero;fill:rgb(65.499878%,66.299438%,67.498779%);fill-opacity:1;" d="M 84.9375 38.222656 L 100.539063 2.714844 L 116.140625 38.222656 L 108.683594 38.222656 L 100.539063 19.644531 L 92.359375 38.222656 "/>
</g>
</svg>
